<svg width="330" height="116" viewBox="0 0 330 116" fill="none" xmlns="http://www.w3.org/2000/svg">
<rect width="330" height="116" fill="#1E1E1E"/>
<path d="M0 0H329.998V115.264H0V0Z" fill="#F5F5F5"/>
<path d="M0 0H329.998V115.264H0V0Z" fill="white"/>
<path fill-rule="evenodd" clip-rule="evenodd" d="M140.133 67.5734C140.131 66.242 140.566 64.9412 141.382 63.8344C142.199 62.726 143.359 61.863 144.716 61.3534C146.076 60.8455 147.57 60.7118 149.012 60.971C150.453 61.2307 151.778 61.8723 152.817 62.8152C153.506 63.4394 154.055 64.1813 154.427 64.9982C154.801 65.8152 154.992 66.6896 154.992 67.5734V101.189C155.014 101.929 155.355 102.632 155.942 103.149C156.528 103.665 157.314 103.955 158.132 103.955C158.95 103.955 159.735 103.665 160.322 103.149C160.907 102.632 161.248 101.929 161.27 101.189V72.3091C161.27 70.524 162.054 68.8122 163.447 67.5493C164.843 66.2864 166.734 65.5779 168.706 65.5779V69.4604C168.293 69.4604 167.886 69.535 167.505 69.6785C167.125 69.8232 166.78 70.0336 166.489 70.2977C166.199 70.5623 165.968 70.8758 165.812 71.2215C165.655 71.5672 165.575 71.9365 165.577 72.3091V101.189C165.542 102.953 164.743 104.635 163.354 105.872C161.963 107.109 160.091 107.802 158.142 107.802C156.192 107.802 154.321 107.109 152.93 105.872C151.539 104.635 150.74 102.953 150.705 101.189V67.5734C150.708 67.2008 150.629 66.831 150.473 66.4874C150.317 66.1417 150.086 65.8294 149.795 65.5653C149.356 65.1703 148.797 64.9028 148.189 64.7944C147.581 64.688 146.952 64.7435 146.379 64.9587C145.808 65.1735 145.319 65.5351 144.974 66.0015C144.629 66.4666 144.443 67.0129 144.439 67.5734V95.8413H140.133V67.5734Z" fill="#EA580C"/>
<path fill-rule="evenodd" clip-rule="evenodd" d="M176.149 72.3091V86.7857C176.147 87.1583 176.227 87.5276 176.384 87.8733C176.54 88.2169 176.771 88.5308 177.062 88.795C177.5 89.1965 178.061 89.4705 178.672 89.5817C179.285 89.693 179.919 89.6376 180.495 89.4207C181.071 89.2043 181.563 88.8366 181.908 88.3669C182.253 87.8969 182.435 87.3429 182.432 86.7791V81.9334H182.417C182.419 81.0496 182.611 80.1756 182.985 79.3603C183.359 78.5449 183.907 77.8042 184.596 77.1801C185.287 76.5544 186.105 76.0591 187.007 75.7199C187.907 75.3824 188.874 75.2071 189.851 75.2071C190.827 75.2071 191.792 75.3824 192.693 75.7199C193.595 76.0591 194.413 76.5544 195.104 77.1801C195.795 77.8042 196.344 78.5449 196.718 79.3603C197.092 80.1772 197.284 81.0512 197.284 81.935V85.9002H192.986V81.9334C192.987 81.5591 192.908 81.1898 192.752 80.8457C192.594 80.5005 192.364 80.1882 192.074 79.924C191.484 79.3937 190.685 79.0957 189.854 79.0957C189.022 79.0957 188.224 79.3937 187.634 79.924C187.118 80.3904 186.802 81.0068 186.735 81.6627V86.7791C186.735 88.1105 186.3 89.4113 185.482 90.5181C184.666 91.6249 183.504 92.4879 182.147 92.9975C180.789 93.507 179.293 93.6407 177.851 93.3811C176.41 93.1218 175.086 92.4797 174.045 91.5389C173.354 90.9148 172.807 90.1741 172.431 89.3571C172.057 88.5418 171.865 87.6662 171.865 86.7824V72.3091H176.149Z" fill="#2B143E"/>
<path fill-rule="evenodd" clip-rule="evenodd" d="M310.996 81.2999C308.967 81.2999 307.653 81.9733 306.853 82.999C306.052 81.9113 304.793 81.2999 303.1 81.2999C301.187 81.2999 299.93 81.9733 299.272 82.8522V81.6627H295.004V94.6057H299.292V87.3046C299.292 85.7792 300.091 84.8713 301.52 84.8713C302.891 84.8713 303.579 85.6997 303.579 86.994V94.6057H307.865V87.3046C307.865 85.7792 308.665 84.8713 310.094 84.8713C311.466 84.8713 312.15 85.6997 312.15 86.994V94.6057H316.438V86.6581C316.425 83.4209 314.283 81.2999 310.996 81.2999Z" fill="#2B143E"/>
<path fill-rule="evenodd" clip-rule="evenodd" d="M287.561 81.6627V88.7248C287.561 90.5642 286.474 91.3921 284.903 91.3921C283.532 91.3921 282.418 90.6408 282.418 89.0371V81.6627H278.131V89.607C278.131 93.0994 280.588 94.9624 283.475 94.9624C285.351 94.9624 286.789 94.3415 287.561 93.3843V94.6057H291.847V81.6627H287.561Z" fill="#2B143E"/>
<path d="M270.899 81.6627H275.186V94.6008H270.899V81.6627Z" fill="#2B143E"/>
<path fill-rule="evenodd" clip-rule="evenodd" d="M273.042 80.5225C273.553 80.5225 274.052 80.3855 274.477 80.1291C274.901 79.8731 275.231 79.5082 275.427 79.0814C275.622 78.6546 275.673 78.1833 275.573 77.7313C275.474 77.2771 275.227 76.8617 274.868 76.5352C274.507 76.2087 274.047 75.9857 273.547 75.8968C273.046 75.8059 272.527 75.852 272.056 76.0289C271.585 76.2058 271.182 76.505 270.899 76.8886C270.614 77.2727 270.463 77.7247 270.463 78.1866C270.468 78.8042 270.741 79.3969 271.223 79.8331C271.707 80.2709 272.36 80.518 273.042 80.5225Z" fill="#2B143E"/>
<path fill-rule="evenodd" clip-rule="evenodd" d="M252.266 94.6057H256.776V85.5961L263.263 94.6057H268.784L263.554 87.2267C264.832 86.7742 265.458 86.3474 266.247 85.3442C267.162 84.2219 267.66 82.8636 267.67 81.4686V80.935C267.67 78.6819 266.861 77.5511 265.495 76.309C264.126 75.0673 262.113 74.2389 259.59 74.2389H252.252L252.266 94.6008V94.6057ZM260.03 83.9304H258.514V83.9174H256.776V78.2946H259.326C260.421 78.2946 261.54 78.5877 262.125 79.1038C262.412 79.3602 262.636 79.6644 262.791 79.9986C262.943 80.3345 263.022 80.6945 263.02 81.0577C263.01 82.6117 261.683 83.9272 260.03 83.9272V83.9304Z" fill="#EA580C"/>
<path fill-rule="evenodd" clip-rule="evenodd" d="M227.44 73.7534V94.6008H231.954V86.1611L238.462 94.2681L244.959 86.1611V94.6008H249.475V73.7534L238.462 87.4322L227.44 73.7534Z" fill="#EA580C"/>
<path fill-rule="evenodd" clip-rule="evenodd" d="M206.563 73.8043V94.6264H211.077V83.319L224.649 95.0149V74.1835H220.113V85.4909L206.563 73.8043Z" fill="#EA580C"/>
<path d="M20.1666 26.4545H24.4985V21.6898H34.6963V17.7327H20.1666V26.4545Z" fill="#FF0000"/>
<path d="M20.1666 39.1347H34.6963V35.1776H24.4985V30.4129H20.1666V39.1347Z" fill="#FF0000"/>
<path d="M24.4985 26.4546H33.8244V30.4134H24.4985V26.4546Z" fill="#FF0000"/>
<path d="M52.759 19.6994C52.143 19.0688 51.4096 18.5833 50.6058 18.2743C49.5714 17.8858 48.4796 17.7027 47.3849 17.7329H38.4106V39.1347H42.7425V30.4129H47.3849C48.4747 30.4403 49.5616 30.2572 50.5916 29.8716C51.3999 29.5642 52.1385 29.0787 52.759 28.4464C53.2984 27.8782 53.7107 27.1868 53.9669 26.4273C54.4729 24.9096 54.4729 23.2521 53.9669 21.7344C53.7123 20.9688 53.2984 20.2726 52.759 19.6994ZM49.7275 25.2969C49.5046 25.612 49.2101 25.8635 48.8695 26.0229C48.4747 26.2027 48.0579 26.3189 47.6314 26.367C47.1461 26.4273 46.6573 26.4575 46.1671 26.4546H42.7425V21.69H46.172C46.6605 21.6884 47.149 21.7185 47.6346 21.7793C48.0628 21.8253 48.4796 21.9431 48.8744 22.1262C49.2133 22.2839 49.5062 22.5322 49.7275 22.8493C49.9532 23.206 50.0681 23.6296 50.0518 24.0609C50.0725 24.4991 49.9581 24.9337 49.7275 25.2969Z" fill="#FF0000"/>
<path d="M79.0859 35.1776V17.7329H74.754V39.1347H89.2837V35.1776H79.0859Z" fill="#FF0000"/>
<path d="M57.086 26.4546H61.418V21.69H71.6157V17.7329H57.086V26.4546Z" fill="#FF0000"/>
<path d="M57.086 30.4129H61.418V39.1347H57.086V30.4129Z" fill="#FF0000"/>
<path d="M61.418 26.4546H70.7455V30.4134H61.418V26.4546Z" fill="#FF0000"/>
<path d="M20.2285 65.4886H69.9413V97.776H20.2285V65.4886Z" fill="white"/>
<path d="M25.9513 97.714C29.1405 97.714 31.725 95.1694 31.725 92.0325C31.725 88.8952 29.1405 86.3507 25.9513 86.3507C22.7621 86.3507 20.1776 88.8952 20.1776 92.0325C20.1776 95.1694 22.7621 97.714 25.9513 97.714Z" fill="#2B143E"/>
<path d="M70.0452 91.9241V97.6712H44.7844L44.738 97.7173H37.3603L37.4079 97.6712L41.891 91.929L49.9214 81.6818L53.6104 76.9938L58.0919 71.2965H37.3142V65.5494H69.905L65.3759 71.2948L57.2547 81.6786L53.5656 86.3666L49.1767 91.9274L70.0452 91.9241Z" fill="#2B143E"/>
<path d="M183.942 38.2908C182.239 38.2908 180.772 37.8877 179.541 37.0838C178.311 36.2778 177.366 35.1694 176.704 33.7573C176.041 32.3464 175.709 30.7317 175.709 28.9181C175.709 27.0706 176.048 25.4416 176.726 24.0291C177.412 22.6105 178.367 21.5021 179.589 20.7043C180.819 19.9 182.253 19.4972 183.894 19.4972C185.172 19.4972 186.323 19.7345 187.347 20.2073C188.372 20.6802 189.213 21.3427 189.867 22.1963C190.521 23.0483 190.928 24.0421 191.086 25.1775H188.294C188.081 24.3491 187.608 23.6153 186.875 22.9765C186.149 22.33 185.172 22.0067 183.942 22.0067C182.853 22.0067 181.9 22.2905 181.079 22.8587C180.267 23.4192 179.632 24.2109 179.176 25.2378C178.725 26.2553 178.501 27.4497 178.501 28.8223C178.501 30.2266 178.722 31.4496 179.163 32.4912C179.613 33.5327 180.243 34.3415 181.055 34.9179C181.876 35.4927 182.837 35.7809 183.942 35.7809C184.667 35.7809 185.325 35.6554 185.917 35.4022C186.507 35.1507 187.008 34.7875 187.419 34.3146C187.828 33.8417 188.121 33.273 188.294 32.6106H191.086C190.928 33.6823 190.537 34.6489 189.914 35.5086C189.299 36.3606 188.484 37.0406 187.465 37.5456C186.456 38.0422 185.282 38.2908 183.942 38.2908ZM197.957 26.9768V37.9117H195.166V13.6755H197.957V22.5738H198.193C198.619 21.6358 199.258 20.8906 200.109 20.3382C200.968 19.7777 202.113 19.4972 203.539 19.4972C204.777 19.4972 205.861 19.7459 206.792 20.2424C207.722 20.7312 208.444 21.4862 208.956 22.5037C209.476 23.5134 209.736 24.8 209.736 26.3621V37.9117H206.946V26.55C206.946 25.1073 206.57 23.9912 205.822 23.2011C205.081 22.405 204.051 22.0067 202.735 22.0067C201.82 22.0067 201 22.1995 200.275 22.5864C199.557 22.9733 198.989 23.5371 198.572 24.2794C198.161 25.0197 197.957 25.9194 197.957 26.9768ZM222.459 38.2908C220.708 38.2908 219.2 37.9036 217.93 37.1298C216.668 36.3496 215.694 35.2603 215.008 33.8637C214.33 32.4594 213.991 30.8271 213.991 28.9658C213.991 27.1024 214.33 25.4624 215.008 24.0421C215.694 22.6137 216.649 21.5021 217.871 20.7043C219.101 19.9 220.535 19.4972 222.176 19.4972C223.121 19.4972 224.057 19.655 224.978 19.9701C225.901 20.2872 226.742 20.7997 227.497 21.5102C228.255 22.2106 228.858 23.1424 229.307 24.3014C229.757 25.4624 229.982 26.8892 229.982 28.5867V29.7697H215.979V27.3555H227.143C227.143 26.3303 226.939 25.4147 226.528 24.6104C226.126 23.8049 225.55 23.1694 224.802 22.7042C224.06 22.2395 223.185 22.0067 222.176 22.0067C221.063 22.0067 220.102 22.2823 219.291 22.8351C218.485 23.3797 217.866 24.0898 217.433 24.9655C216.999 25.8415 216.782 26.7791 216.782 27.7807V29.391C216.782 30.7635 217.02 31.9274 217.492 32.8813C217.973 33.8287 218.64 34.5502 219.491 35.0488C220.343 35.5375 221.332 35.7809 222.459 35.7809C223.193 35.7809 223.855 35.679 224.447 35.4739C225.045 35.2603 225.562 34.9452 225.995 34.5278C226.43 34.101 226.764 33.5722 227.001 32.942L229.699 33.6982C229.413 34.6138 228.938 35.4181 228.266 36.1123C227.596 36.8 226.769 37.3353 225.783 37.7222C224.797 38.1013 223.689 38.2908 222.459 38.2908ZM234.228 37.9117V19.7345H236.924V22.5738H237.161C237.54 21.604 238.151 20.8506 238.994 20.3141C239.837 19.7695 240.851 19.4972 242.034 19.4972C243.232 19.4972 244.23 19.7695 245.026 20.3141C245.831 20.8506 246.456 21.604 246.907 22.5738H247.096C247.561 21.6358 248.259 20.8906 249.189 20.3382C250.12 19.7777 251.235 19.4972 252.537 19.4972C254.16 19.4972 255.489 20.0068 256.522 21.0243C257.555 22.034 258.072 23.6072 258.072 25.7457V37.9117H255.281V25.7457C255.281 24.4049 254.913 23.4466 254.179 22.8701C253.448 22.2937 252.583 22.0067 251.59 22.0067C250.312 22.0067 249.323 22.3924 248.622 23.1661C247.92 23.9321 247.569 24.9019 247.569 26.0771V37.9117H244.729V25.4624C244.729 24.429 244.395 23.5962 243.725 22.9655C243.055 22.3255 242.191 22.0067 241.135 22.0067C240.409 22.0067 239.731 22.1995 239.101 22.5864C238.478 22.9733 237.972 23.5085 237.587 24.1962C237.208 24.875 237.019 25.6597 237.019 26.55V37.9117H234.228Z" fill="black"/>
<path d="M263.174 37.9117V19.7345H265.965V37.9117H263.174ZM264.594 16.7044C264.049 16.7044 263.582 16.5193 263.187 16.1484C262.8 15.7774 262.608 15.3314 262.608 14.8108C262.608 14.2903 262.8 13.8443 263.187 13.4733C263.582 13.1024 264.049 12.9177 264.594 12.9177C265.138 12.9177 265.603 13.1024 265.99 13.4733C266.384 13.8443 266.581 14.2903 266.581 14.8108C266.581 15.3314 266.384 15.7774 265.99 16.1484C265.603 16.5193 265.138 16.7044 264.594 16.7044ZM273.87 26.9768V37.9117H271.079V19.7345H273.775V22.5738H274.012C274.437 21.6517 275.084 20.9097 275.952 20.3492C276.819 19.7805 277.938 19.4972 279.31 19.4972C280.54 19.4972 281.617 19.7504 282.539 20.2555C283.461 20.752 284.179 21.5102 284.692 22.5277C285.204 23.5371 285.461 24.8142 285.461 26.3621V37.9117H282.669V26.55C282.669 25.1232 282.298 24.0099 281.557 23.2138C280.815 22.4083 279.798 22.0067 278.506 22.0067C277.615 22.0067 276.819 22.1996 276.117 22.5864C275.423 22.9733 274.874 23.5371 274.473 24.2794C274.071 25.0197 273.87 25.9194 273.87 26.9768ZM298.65 19.7345V22.1009H288.858V19.7345H298.65ZM291.791 37.9117V17.225C291.791 16.1834 292.035 15.3155 292.523 14.6213C293.014 13.9271 293.648 13.4065 294.428 13.0592C295.208 12.7122 296.032 12.5386 296.9 12.5386C297.585 12.5386 298.146 12.5944 298.58 12.7041C299.013 12.8158 299.336 12.9177 299.55 13.0115L298.744 15.4272C298.603 15.3795 298.407 15.3204 298.154 15.2487C297.908 15.1769 297.585 15.1423 297.185 15.1423C296.261 15.1423 295.595 15.3746 295.186 15.841C294.783 16.3061 294.581 16.9893 294.581 17.8874V37.9117H291.791ZM309.194 38.2908C307.556 38.2908 306.116 37.9007 304.878 37.1188C303.647 36.3386 302.686 35.2444 301.992 33.8417C301.306 32.4353 300.962 30.7953 300.962 28.9181C300.962 27.0245 301.306 25.3715 301.992 23.959C302.686 22.5469 303.647 21.4495 304.878 20.6692C306.116 19.8873 307.556 19.4972 309.194 19.4972C310.834 19.4972 312.27 19.8873 313.498 20.6692C314.74 21.4495 315.697 22.5469 316.385 23.959C317.079 25.3715 317.424 27.0245 317.424 28.9181C317.424 30.7953 317.079 32.4353 316.385 33.8417C315.697 35.2444 314.74 36.3386 313.498 37.1188C312.27 37.9007 310.834 38.2908 309.194 38.2908ZM309.194 35.7809C310.439 35.7809 311.466 35.4625 312.27 34.8225C313.073 34.1837 313.67 33.3432 314.054 32.3016C314.442 31.2605 314.635 30.1329 314.635 28.9181C314.635 27.7029 314.442 26.5708 314.054 25.5211C313.67 24.4718 313.073 23.6231 312.27 22.9765C311.466 22.33 310.439 22.0067 309.194 22.0067C307.949 22.0067 306.922 22.33 306.119 22.9765C305.315 23.6231 304.72 24.4718 304.333 25.5211C303.947 26.5708 303.754 27.7029 303.754 28.9181C303.754 30.1329 303.947 31.2605 304.333 32.3016C304.72 33.3432 305.315 34.1837 306.119 34.8225C306.922 35.4625 307.949 35.7809 309.194 35.7809Z" fill="#355EB8"/>
<path d="M140.233 20.6456C140.781 20.6456 141.315 20.5229 141.77 20.2901C142.226 20.0577 142.581 19.7284 142.789 19.3427C142.999 18.9559 143.053 18.5323 142.947 18.123C142.84 17.7121 142.576 17.3363 142.189 17.0419C141.802 16.7456 141.309 16.545 140.773 16.4639C140.237 16.3828 139.68 16.4239 139.173 16.5833C138.667 16.7439 138.236 17.0146 137.932 17.3619C137.628 17.7089 137.466 18.1165 137.466 18.5339C137.466 19.0945 137.757 19.6309 138.276 20.0276C138.795 20.4242 139.498 20.6456 140.233 20.6456Z" fill="#355EB8"/>
<path d="M140.233 20.6456C140.781 20.6456 141.315 20.5229 141.77 20.2901C142.226 20.0577 142.581 19.7284 142.789 19.3427C142.999 18.9559 143.053 18.5323 142.947 18.123C142.84 17.7121 142.576 17.3363 142.189 17.0419C141.802 16.7456 141.309 16.545 140.773 16.4639C140.237 16.3828 139.68 16.4239 139.173 16.5833C138.667 16.7439 138.236 17.0146 137.932 17.3619C137.628 17.7089 137.466 18.1165 137.466 18.5339C137.466 19.0945 137.757 19.6309 138.276 20.0276C138.795 20.4242 139.498 20.6456 140.233 20.6456Z" stroke="#355EB8" stroke-width="5.85459"/>
<path d="M160.203 30.4419C160.75 30.4419 161.286 30.3176 161.741 30.0852C162.197 29.8524 162.551 29.523 162.76 29.1378C162.97 28.7522 163.024 28.327 162.918 27.9177C162.811 27.5084 162.546 27.1313 162.16 26.8366C161.773 26.5402 161.28 26.3397 160.744 26.2586C160.206 26.1774 159.65 26.2186 159.144 26.378C158.638 26.539 158.207 26.8097 157.903 27.1566C157.597 27.5039 157.435 27.9116 157.435 28.3302C157.435 28.8891 157.728 29.4276 158.247 29.8223C158.765 30.2189 159.469 30.4419 160.203 30.4419Z" fill="#355EB8"/>
<path d="M160.203 30.4419C160.75 30.4419 161.286 30.3176 161.741 30.0852C162.197 29.8524 162.551 29.523 162.76 29.1378C162.97 28.7522 163.024 28.327 162.918 27.9177C162.811 27.5084 162.546 27.1313 162.16 26.8366C161.773 26.5402 161.28 26.3397 160.744 26.2586C160.206 26.1774 159.65 26.2186 159.144 26.378C158.638 26.539 158.207 26.8097 157.903 27.1566C157.597 27.5039 157.435 27.9116 157.435 28.3302C157.435 28.8891 157.728 29.4276 158.247 29.8223C158.765 30.2189 159.469 30.4419 160.203 30.4419Z" stroke="#355EB8" stroke-width="5.85459"/>
<path d="M153.797 40.2333C154.345 40.2333 154.879 40.1094 155.334 39.8782C155.79 39.6459 156.145 39.3161 156.353 38.9308C156.563 38.544 156.617 38.1204 156.51 37.7095C156.404 37.3002 156.141 36.9244 155.753 36.6284C155.366 36.3337 154.873 36.1331 154.336 36.0504C153.8 35.9688 153.243 36.0121 152.737 36.171C152.231 36.3304 151.8 36.6011 151.496 36.9484C151.192 37.2953 151.03 37.7046 151.03 38.1221C151.03 38.6826 151.321 39.2191 151.839 39.6157C152.359 40.0103 153.063 40.2333 153.797 40.2333Z" fill="#355EB8"/>
<path d="M153.797 40.2333C154.345 40.2333 154.879 40.1094 155.334 39.8782C155.79 39.6459 156.145 39.3161 156.353 38.9308C156.563 38.544 156.617 38.1204 156.51 37.7095C156.404 37.3002 156.141 36.9244 155.753 36.6284C155.366 36.3337 154.873 36.1331 154.336 36.0504C153.8 35.9688 153.243 36.0121 152.737 36.171C152.231 36.3304 151.8 36.6011 151.496 36.9484C151.192 37.2953 151.03 37.7046 151.03 38.1221C151.03 38.6826 151.321 39.2191 151.839 39.6157C152.359 40.0103 153.063 40.2333 153.797 40.2333Z" stroke="#355EB8" stroke-width="5.85459"/>
<path d="M140.233 40.2333C140.781 40.2333 141.315 40.1094 141.77 39.8782C142.226 39.6459 142.581 39.3161 142.789 38.9308C142.999 38.544 143.053 38.1204 142.947 37.7095C142.84 37.3002 142.576 36.9244 142.189 36.6284C141.802 36.3337 141.309 36.1331 140.773 36.0504C140.237 35.9688 139.68 36.0121 139.173 36.171C138.667 36.3304 138.236 36.6011 137.932 36.9484C137.628 37.2953 137.466 37.7046 137.466 38.1221C137.466 38.6826 137.757 39.2191 138.276 39.6157C138.795 40.0103 139.498 40.2333 140.233 40.2333Z" fill="#355EB8"/>
<path d="M140.233 40.2333C140.781 40.2333 141.315 40.1094 141.77 39.8782C142.226 39.6459 142.581 39.3161 142.789 38.9308C142.999 38.544 143.053 38.1204 142.947 37.7095C142.84 37.3002 142.576 36.9244 142.189 36.6284C141.802 36.3337 141.309 36.1331 140.773 36.0504C140.237 35.9688 139.68 36.0121 139.173 36.171C138.667 36.3304 138.236 36.6011 137.932 36.9484C137.628 37.2953 137.466 37.7046 137.466 38.1221C137.466 38.6826 137.757 39.2191 138.276 39.6157C138.795 40.0103 139.498 40.2333 140.233 40.2333Z" stroke="#355EB8" stroke-width="5.85459"/>
<path d="M133.903 30.4419C134.45 30.4419 134.985 30.3176 135.44 30.0852C135.895 29.8524 136.25 29.523 136.458 29.1378C136.669 28.7522 136.724 28.327 136.616 27.9177C136.509 27.5084 136.247 27.1313 135.859 26.8366C135.472 26.5402 134.978 26.3397 134.442 26.2586C133.906 26.1774 133.349 26.2186 132.843 26.378C132.338 26.539 131.906 26.8097 131.601 27.1566C131.297 27.5039 131.135 27.9116 131.135 28.3302C131.135 28.8891 131.426 29.4276 131.945 29.8223C132.464 30.2189 133.169 30.4419 133.903 30.4419Z" fill="#355EB8"/>
<path d="M133.903 30.4419C134.45 30.4419 134.985 30.3176 135.44 30.0852C135.895 29.8524 136.25 29.523 136.458 29.1378C136.669 28.7522 136.724 28.327 136.616 27.9177C136.509 27.5084 136.247 27.1313 135.859 26.8366C135.472 26.5402 134.978 26.3397 134.442 26.2586C133.906 26.1774 133.349 26.2186 132.843 26.378C132.338 26.539 131.906 26.8097 131.601 27.1566C131.297 27.5039 131.135 27.9116 131.135 28.3302C131.135 28.8891 131.426 29.4276 131.945 29.8223C132.464 30.2189 133.169 30.4419 133.903 30.4419Z" stroke="#355EB8" stroke-width="5.85459"/>
<path d="M153.797 20.6456C154.345 20.6456 154.879 20.5229 155.334 20.2901C155.79 20.0577 156.145 19.7284 156.353 19.3427C156.563 18.9559 156.617 18.5323 156.51 18.123C156.404 17.7121 156.141 17.3363 155.753 17.0419C155.366 16.7456 154.873 16.545 154.336 16.4639C153.8 16.3828 153.243 16.4239 152.737 16.5833C152.231 16.7439 151.8 17.0146 151.496 17.3619C151.192 17.7089 151.03 18.1165 151.03 18.5339C151.03 19.0945 151.321 19.6309 151.839 20.0276C152.359 20.4242 153.063 20.6456 153.797 20.6456Z" fill="#355EB8"/>
<path d="M153.797 20.6456C154.345 20.6456 154.879 20.5229 155.334 20.2901C155.79 20.0577 156.145 19.7284 156.353 19.3427C156.563 18.9559 156.617 18.5323 156.51 18.123C156.404 17.7121 156.141 17.3363 155.753 17.0419C155.366 16.7456 154.873 16.545 154.336 16.4639C153.8 16.3828 153.243 16.4239 152.737 16.5833C152.231 16.7439 151.8 17.0146 151.496 17.3619C151.192 17.7089 151.03 18.1165 151.03 18.5339C151.03 19.0945 151.321 19.6309 151.839 20.0276C152.359 20.4242 153.063 20.6456 153.797 20.6456Z" stroke="#355EB8" stroke-width="5.85459"/>
</svg>
