<svg width="173" height="171" viewBox="0 0 173 171" fill="none" xmlns="http://www.w3.org/2000/svg">
<g clip-path="url(#clip0_0_1)">
<g opacity="0.2">
<path d="M45.3376 22.937C45.3376 34.7525 35.7182 44.3301 23.8512 44.3301C11.9842 44.3301 2.36481 34.7525 2.36481 22.937C2.36481 11.1215 11.9842 1.54391 23.8512 1.54391C35.7182 1.54391 45.3376 11.1215 45.3376 22.937Z" fill="#87CEC6" stroke="#F03C2E" stroke-width="1.08779"/>
<path d="M35.9528 22.7786L25.4281 12.3006C24.8214 11.6976 23.8392 11.6976 23.2305 12.3006L21.0501 14.4756L23.8221 17.2356C24.4699 17.0206 25.2071 17.1656 25.7193 17.6766C26.2376 18.1916 26.3802 18.9346 26.1592 19.5766L28.8288 22.2366C29.4766 22.0136 30.2219 22.1586 30.7371 22.6716C31.4613 23.3916 31.4613 24.5556 30.7371 25.2756C30.015 25.9946 28.8479 25.9946 28.1258 25.2756C27.5844 24.7346 27.4488 23.9386 27.72 23.2796L25.2202 20.8036V27.3286C25.3969 27.4146 25.5636 27.5316 25.7103 27.6766C26.4264 28.3976 26.4264 29.5596 25.7103 30.2766C24.9881 30.9976 23.813 30.9976 23.0899 30.2766C22.3678 29.5576 22.3678 28.3976 23.0899 27.6786C23.2727 27.4986 23.4786 27.3626 23.6975 27.2726V20.6836C23.4796 20.5926 23.2717 20.4616 23.0949 20.2826C22.5476 19.7376 22.416 18.9406 22.6972 18.2736L19.9734 15.5486L12.756 22.7296C12.1534 23.3346 12.1534 24.3136 12.756 24.9186L23.2817 35.3956C23.8884 35.9996 24.8706 35.9996 25.4773 35.3956L35.9528 24.9656C36.5604 24.3626 36.5604 23.3836 35.9528 22.7786Z" fill="#F03C2E"/>
</g>
<path opacity="0.2" d="M171.253 21.937C171.253 33.7525 161.634 43.3301 149.767 43.3301C137.9 43.3301 128.28 33.7525 128.28 21.937C128.28 10.1215 137.9 0.543915 149.767 0.543915C161.634 0.543915 171.253 10.1215 171.253 21.937Z" fill="white"/>
<path opacity="0.2" d="M171.253 21.937C171.253 33.7525 161.634 43.3301 149.767 43.3301C137.9 43.3301 128.28 33.7525 128.28 21.937C128.28 10.1215 137.9 0.543915 149.767 0.543915C161.634 0.543915 171.253 10.1215 171.253 21.937Z" fill="#87CEC6" stroke="black" stroke-width="1.08779"/>
<path opacity="0.2" d="M150.106 12C144.526 12 140 16.5052 140 22.0621C140 26.5077 142.896 30.2789 146.912 31.6104C147.416 31.703 147.58 31.3914 147.58 31.126V29.2526C144.769 29.8617 144.183 28.0657 144.183 28.0657C143.723 26.9022 143.06 26.5935 143.06 26.5935C142.143 25.9684 143.131 25.9817 143.131 25.9817C144.145 26.0525 144.679 27.0195 144.679 27.0195C145.58 28.5566 147.043 28.1128 147.62 27.8551C147.71 27.2053 147.972 26.7606 148.261 26.5104C146.017 26.2546 143.658 25.3914 143.658 21.537C143.658 20.4379 144.052 19.5408 144.698 18.8364C144.594 18.5824 144.248 17.5589 144.797 16.1738C144.797 16.1738 145.646 15.9035 147.577 17.2047C148.383 16.9819 149.247 16.8704 150.106 16.8658C150.965 16.8704 151.83 16.9819 152.637 17.2047C154.567 15.9035 155.414 16.1738 155.414 16.1738C155.964 17.5589 155.618 18.5833 155.513 18.8364C156.162 19.5408 156.554 20.4388 156.554 21.537C156.554 25.4018 154.19 26.2527 151.939 26.5019C152.301 26.8135 152.632 27.4263 152.632 28.3649V31.126C152.632 31.394 152.794 31.7085 153.307 31.6094C157.32 30.277 160.212 26.5058 160.212 22.0621C160.212 16.5052 155.687 12 150.106 12Z" fill="black"/>
<path d="M121.45 85.1192C121.45 103.893 106.164 119.112 87.3089 119.112C68.4533 119.112 53.1674 103.893 53.1674 85.1192C53.1674 66.3455 68.4533 51.1259 87.3089 51.1259C106.164 51.1259 121.45 66.3455 121.45 85.1192Z" fill="white"/>
<path d="M121.45 85.1192C121.45 103.893 106.164 119.112 87.3089 119.112C68.4533 119.112 53.1674 103.893 53.1674 85.1192C53.1674 66.3455 68.4533 51.1259 87.3089 51.1259C106.164 51.1259 121.45 66.3455 121.45 85.1192Z" stroke="#751111" stroke-width="1.08779"/>
<path fill-rule="evenodd" clip-rule="evenodd" d="M88.0202 87.4108C87.5337 87.222 87.0309 87.1239 86.5133 87.1239C85.7337 87.1239 85.0935 87.3721 84.5909 87.864L80.2558 92.1765L80.7064 92.6297L79.0608 94.2795L76.2925 91.5185L77.9379 89.8801L78.4482 90.3768L82.7596 86.088C83.3522 85.5016 83.9895 85.2098 84.6696 85.2098C85.8133 85.2098 86.9287 85.9425 88.0202 87.4108ZM94.599 86.1901C95.0704 86.1901 95.5227 86.2703 95.943 86.4166L94.874 87.5696C92.4433 90.1871 95.186 91.7015 97.6024 89.9047L98.5347 89.2117C98.6212 89.5402 98.6675 89.8859 98.6675 90.2407C98.6675 92.4787 96.8457 94.2926 94.599 94.2926C93.866 94.2926 93.1774 94.099 92.5838 93.761L90.6073 95.8498C92.4671 97.6232 94.3278 99.3955 96.1875 101.168L93.665 103.679C91.9048 101.853 90.1456 100.025 88.3871 98.1973L84.9228 101.859C84.6591 102.307 84.1706 102.608 83.612 102.608C82.7746 102.608 82.0956 101.932 82.0956 101.098C82.0956 100.737 82.2228 100.407 82.4352 100.147L82.4323 100.144L82.4457 100.133C82.5556 100.002 82.6865 99.8901 82.8344 99.8014L86.7313 96.4757L81.9268 91.4656L83.9203 89.4807C85.7696 91.2492 87.271 92.6677 89.1232 94.4343L91.2835 92.5901C90.8093 91.9273 90.5296 91.1172 90.5296 90.2417C90.5296 88.004 92.3515 86.1901 94.599 86.1901ZM81.5058 87.0888L79.5238 89.0616L79.1443 88.6837L81.1254 86.7103L81.5058 87.0888Z" fill="#751111"/>
<path d="M82.2959 69.64L80.1837 69.6342L80.2009 63.7007L82.3309 63.7072C82.9303 63.7092 83.4453 63.8291 83.8776 64.0679C84.3093 64.305 84.6412 64.6439 84.8726 65.0877C85.1059 65.5306 85.2215 66.0602 85.2205 66.6759C85.2188 67.2945 85.0991 67.8251 84.8641 68.2689C84.6298 68.7118 84.294 69.0516 83.8568 69.2888C83.4215 69.5247 82.9009 69.6419 82.2959 69.64ZM81.4469 68.5626L82.2464 68.5655C82.6193 68.5662 82.9332 68.5012 83.1872 68.3709C83.4433 68.2387 83.6368 68.0327 83.7648 67.7552C83.8956 67.4758 83.9621 67.1151 83.9631 66.672C83.965 66.234 83.9005 65.8753 83.7715 65.5966C83.6443 65.3191 83.4537 65.1131 83.1996 64.9809C82.9463 64.8489 82.6324 64.7827 82.2607 64.7817L81.4573 64.7788L81.4469 68.5626ZM88.1587 69.7439C87.6986 69.743 87.3033 69.6485 86.9722 69.4623C86.6422 69.2735 86.389 69.0084 86.2115 68.6663C86.0343 68.3219 85.9462 67.9148 85.9481 67.4456C85.9488 66.9875 86.0392 66.5862 86.2183 66.2415C86.3985 65.8961 86.6498 65.6278 86.9751 65.4351C87.3014 65.2425 87.6835 65.1472 88.1218 65.1491C88.4167 65.1501 88.6906 65.1973 88.9448 65.2925C89.2009 65.386 89.4238 65.5267 89.6134 65.7148C89.805 65.9026 89.9531 66.1386 90.0592 66.4228C90.1655 66.7052 90.2175 67.0356 90.2167 67.4144L90.2158 67.7533L86.4412 67.7429L86.4439 66.9781L89.0511 66.9856C89.0511 66.8072 89.0133 66.6505 88.9353 66.5125C88.8586 66.3757 88.7513 66.2681 88.6139 66.1905C88.4782 66.1103 88.3199 66.0706 88.1397 66.0697C87.9518 66.0697 87.785 66.1122 87.6389 66.199C87.4949 66.2841 87.382 66.3984 87.3004 66.5427C87.2188 66.6853 87.1761 66.8449 87.1742 67.0206L87.1715 67.7477C87.1715 67.9677 87.2113 68.1584 87.2929 68.319C87.3752 68.4795 87.492 68.6032 87.6437 68.691C87.7945 68.7778 87.9737 68.8222 88.1815 68.8222C88.3189 68.8232 88.4451 68.8043 88.5597 68.7657C88.6746 68.7277 88.7722 68.6692 88.8538 68.5928C88.9363 68.5155 88.998 68.421 89.0407 68.3095L90.1871 68.3878C90.1284 68.6617 90.0089 68.9006 89.8278 69.1055C89.6486 69.3076 89.4173 69.4652 89.1337 69.5786C88.8518 69.69 88.5267 69.7447 88.1587 69.7439ZM95.078 65.2265L93.5028 69.6722L92.1068 69.6683L90.5571 65.2132L91.866 65.2171L92.7849 68.404H92.8313L93.7665 65.2226L95.078 65.2265ZM76.8578 74.5162L76.8607 73.4811L81.7552 73.4954L81.7523 74.5292L79.9278 74.5246L79.9135 79.4233L78.6682 79.4197L78.6826 74.5208L76.8578 74.5162ZM83.892 79.5217C83.4397 79.5207 83.0498 79.4233 82.7198 79.2319C82.3925 79.0373 82.1403 78.7682 81.9628 78.4245C81.7856 78.0778 81.6974 77.6766 81.6984 77.2214C81.7001 76.7616 81.7904 76.3603 81.9696 76.0166C82.1488 75.6709 82.403 75.4038 82.732 75.2131C83.0621 75.0214 83.4528 74.9259 83.9051 74.9269C84.3567 74.9279 84.7463 75.026 85.0736 75.2196C85.4035 75.4123 85.6568 75.6813 85.8342 76.028C86.0115 76.3717 86.0998 76.7739 86.0989 77.2337C86.0969 77.6889 86.0069 78.0902 85.8274 78.4349C85.6473 78.7786 85.3931 79.0457 85.0622 79.2384C84.7342 79.4291 84.3443 79.5236 83.892 79.5217ZM83.9005 78.5661C84.1063 78.5661 84.278 78.5084 84.4164 78.3933C84.5538 78.2761 84.6582 78.1155 84.7284 77.9135C84.8014 77.7106 84.8374 77.48 84.8383 77.2214C84.8393 76.9627 84.8044 76.7314 84.7332 76.5283C84.6638 76.3253 84.5606 76.1648 84.4229 76.0468C84.2855 75.9286 84.1139 75.8692 83.908 75.8682C83.7004 75.8682 83.5259 75.926 83.3836 76.0439C83.2442 76.1609 83.1379 76.3214 83.065 76.5235C82.9946 76.7266 82.9597 76.9569 82.9587 77.2158C82.9577 77.4745 82.992 77.7058 83.0612 77.9089C83.1323 78.1119 83.2374 78.2724 83.377 78.3904C83.5183 78.5067 83.6926 78.5652 83.9005 78.5661ZM88.9174 79.5357C88.4651 79.5347 88.0742 79.4376 87.7452 79.2459C87.4179 79.0513 87.1657 78.7822 86.9884 78.4385C86.811 78.0921 86.7228 77.6908 86.7238 77.2356C86.7248 76.7756 86.8158 76.3744 86.995 76.0306C87.1742 75.6852 87.4284 75.4178 87.7566 75.2271C88.0875 75.0354 88.4782 74.9402 88.9307 74.9411C89.382 74.9419 89.772 75.0403 90.099 75.2336C90.4282 75.4263 90.6814 75.6956 90.8596 76.042C91.0369 76.3857 91.1252 76.788 91.1233 77.2477C91.1223 77.7029 91.0323 78.1042 90.8521 78.4489C90.6727 78.7926 90.4178 79.06 90.0876 79.2524C89.7596 79.4424 89.3687 79.5376 88.9174 79.5357ZM88.9259 78.5802C89.1317 78.5802 89.3034 78.5226 89.4408 78.4073C89.5794 78.2903 89.6836 78.1298 89.7538 77.9277C89.8259 77.7247 89.863 77.4943 89.8637 77.2356C89.8647 76.9768 89.8288 76.7454 89.7576 76.5426C89.6884 76.3396 89.585 76.179 89.4476 76.0608C89.3109 75.9429 89.1393 75.8834 88.9334 75.8824C88.7258 75.8824 88.5512 75.94 88.409 76.0582C88.2686 76.1752 88.1625 76.3357 88.0904 76.5378C88.0203 76.7408 87.9851 76.9712 87.9841 77.2298C87.9831 77.4887 88.0174 77.7201 88.0866 77.9229C88.1577 78.1259 88.2631 78.2864 88.4024 78.4047C88.5437 78.5207 88.7183 78.5792 88.9259 78.5802ZM93.1794 73.5275L93.1622 79.4613L91.9228 79.4574L91.9398 73.5246L93.1794 73.5275ZM97.8834 76.2931L96.7481 76.3594C96.7292 76.2629 96.6884 76.1761 96.6238 76.0988C96.5602 76.0193 96.476 75.9562 96.3716 75.9098C96.2691 75.8607 96.1458 75.8363 96.0018 75.8363C95.8102 75.8353 95.6481 75.8759 95.5162 75.9562C95.3834 76.0355 95.3179 76.1411 95.3169 76.2743C95.3169 76.3811 95.3596 76.4708 95.4441 76.5443C95.5293 76.618 95.6755 76.6775 95.8831 76.722L96.692 76.8871C97.1257 76.9768 97.45 77.1203 97.6624 77.3186C97.8749 77.5161 97.981 77.7747 97.98 78.0957C97.979 78.3875 97.8919 78.6425 97.7193 78.8625C97.5476 79.0825 97.3123 79.2534 97.0137 79.3762C96.7158 79.497 96.3735 79.5565 95.9855 79.5555C95.3939 79.5546 94.9234 79.4301 94.5725 79.1835C94.2244 78.9362 94.0207 78.599 93.9617 78.1743L95.1814 78.1139C95.2174 78.2932 95.3055 78.431 95.4478 78.5265C95.5891 78.6188 95.7704 78.6662 95.9914 78.6672C96.2084 78.6672 96.383 78.6266 96.5158 78.5434C96.6495 78.4583 96.7178 78.3498 96.7197 78.2166C96.7187 78.1042 96.6714 78.0128 96.5784 77.941C96.4854 77.8673 96.3422 77.8107 96.1477 77.7718L95.374 77.6161C94.9386 77.5284 94.6133 77.3763 94.4009 77.161C94.1904 76.9465 94.085 76.6729 94.086 76.3405C94.087 76.0543 94.1656 75.8087 94.3212 75.602C94.4786 75.3961 94.6995 75.2375 94.9831 75.1261C95.2686 75.0146 95.6024 74.96 95.9846 74.961C96.549 74.9627 96.9928 75.0826 97.3162 75.3216C97.6416 75.5595 97.8302 75.8834 97.8834 76.2931Z" fill="black"/>
<g opacity="0.2">
<path d="M44.5167 148.301C44.5167 160.117 34.8973 169.694 23.0303 169.694C11.1632 169.694 1.54388 160.117 1.54388 148.301C1.54388 136.486 11.1632 126.908 23.0303 126.908C34.8973 126.908 44.5167 136.486 44.5167 148.301Z" fill="#87CEC6"/>
<path d="M44.5167 148.301C44.5167 160.117 34.8973 169.694 23.0303 169.694C11.1632 169.694 1.54388 160.117 1.54388 148.301C1.54388 136.486 11.1632 126.908 23.0303 126.908C34.8973 126.908 44.5167 136.486 44.5167 148.301Z" stroke="black" stroke-width="1.08779"/>
<path d="M31.0774 149.013L32.386 141.35C32.386 141.35 30.4144 137.424 23.605 137.424C15.3418 137.424 14.7378 141.35 14.7378 141.35L16.0627 149.013H31.0774Z" fill="#050505"/>
<path d="M15.5001 145.727L16.0627 149.013H31.0774L31.6387 145.727H15.5001Z" fill="#DD002A"/>
<path d="M33.3362 150.846H13.8016L13.1975 149.013H33.9556L33.3362 150.846Z" fill="#050505"/>
<path d="M23.5615 149.233C24.8975 149.233 25.9806 148.138 25.9806 146.789C25.9806 145.439 24.8975 144.346 23.5615 144.346C22.2262 144.346 21.1431 145.439 21.1431 146.789C21.1431 148.138 22.2262 149.233 23.5615 149.233Z" fill="#050505"/>
<path d="M23.5615 148.926C23.1432 148.926 22.7343 148.801 22.3864 148.566C22.0383 148.331 21.7671 147.996 21.6078 147.605C21.4473 147.216 21.4058 146.785 21.4881 146.37C21.5697 145.956 21.7717 145.575 22.0676 145.276C22.3636 144.978 22.7411 144.775 23.1517 144.692C23.5622 144.61 23.9871 144.653 24.3741 144.815C24.7611 144.977 25.091 145.251 25.3234 145.603C25.5547 145.955 25.679 146.369 25.6781 146.792C25.6771 147.357 25.4533 147.9 25.057 148.3C24.6596 148.7 24.1228 148.926 23.5615 148.926ZM23.5615 144.927C23.1973 144.927 22.8416 145.036 22.5391 145.241C22.2356 145.445 22.0004 145.736 21.861 146.076C21.7214 146.416 21.6845 146.79 21.7557 147.15C21.8268 147.511 22.0023 147.843 22.2592 148.103C22.5163 148.364 22.8443 148.541 23.2019 148.613C23.5586 148.685 23.9293 148.649 24.266 148.508C24.6028 148.367 24.89 148.129 25.093 147.824C25.2959 147.519 25.404 147.159 25.4049 146.792C25.4059 146.547 25.3586 146.304 25.2666 146.079C25.1736 145.852 25.0381 145.647 24.8672 145.473C24.6955 145.301 24.4926 145.164 24.269 145.07C24.0451 144.977 23.805 144.929 23.5622 144.93L23.5615 144.927ZM23.5615 148.33C23.2597 148.33 22.9647 148.239 22.7134 148.07C22.4622 147.9 22.2667 147.659 22.1512 147.377C22.0363 147.096 22.006 146.785 22.0647 146.486C22.1247 146.187 22.2696 145.912 22.484 145.697C22.6974 145.481 22.9696 145.335 23.2665 145.276C23.5622 145.216 23.8696 145.248 24.1483 145.365C24.4273 145.482 24.6652 145.68 24.8322 145.934C25 146.187 25.0884 146.486 25.0884 146.792C25.0874 147.199 24.9262 147.591 24.6397 147.879C24.3542 148.168 23.9662 148.33 23.5615 148.33ZM23.5615 145.436C23.3005 145.436 23.0446 145.516 22.8273 145.663C22.6103 145.81 22.4403 146.02 22.3408 146.265C22.2412 146.509 22.2157 146.778 22.2667 147.037C22.3189 147.297 22.4452 147.535 22.6309 147.722C22.8159 147.909 23.0521 148.035 23.309 148.086C23.5651 148.138 23.8317 148.112 24.0735 148.01C24.3153 147.909 24.5222 147.737 24.6671 147.517C24.8123 147.297 24.89 147.039 24.89 146.774C24.891 146.598 24.8567 146.424 24.7905 146.262C24.7242 146.098 24.6263 145.951 24.503 145.827C24.3799 145.702 24.2338 145.604 24.0735 145.536C23.9123 145.47 23.7397 145.436 23.5661 145.436H23.5615ZM23.9482 146.236L24.6387 145.727L24.1068 146.411L24.9412 146.193L24.2073 146.643L25.057 146.745L24.2073 146.891L24.9849 147.298L24.1502 147.123L24.7118 147.777L23.9919 147.309L24.2801 148.123L23.7766 147.425L23.7625 148.298L23.5462 147.454L23.2153 148.255L23.3024 147.396L22.7117 148.021L23.0985 147.25L22.3209 147.614L22.9686 147.032L22.1048 147.091L22.9145 146.792L22.0934 146.53L22.9572 146.544L22.281 146.007L23.073 146.327L22.6406 145.585L23.2587 146.181L23.1148 145.323L23.4894 146.108L23.662 145.265L23.7339 146.138L24.209 145.411L23.9482 146.236Z" fill="#DD002A"/>
<path d="M23.5615 153.804C23.5615 153.804 25.0587 152 28.5715 152.887C32.0844 153.774 33.8834 158.166 33.8834 158.166C32.4267 159.103 30.6828 159.475 28.9746 159.212C25.9806 158.82 23.5481 155.593 23.5615 153.804Z" fill="#4F1907"/>
<path d="M18.1491 159.213C16.4418 159.476 14.6979 159.104 13.2412 158.166C13.2412 158.166 15.0402 153.774 18.5538 152.887C22.0676 151.999 23.5632 153.804 23.5632 153.804C23.5765 155.592 21.1431 158.82 18.1491 159.213Z" fill="#4F1907"/>
</g>
<path d="M172.253 148.301C172.253 160.117 162.634 169.694 150.767 169.694C138.9 169.694 129.28 160.117 129.28 148.301C129.28 136.486 138.9 126.908 150.767 126.908C162.634 126.908 172.253 136.486 172.253 148.301Z" fill="#87CEC6" stroke="#007ACC" stroke-width="1.08779"/>
<path d="M159.433 140.906L155.552 139.039C155.332 138.933 155.086 138.899 154.846 138.939C154.606 138.981 154.384 139.095 154.212 139.267L146.78 146.047L143.544 143.59C143.398 143.478 143.217 143.422 143.034 143.431C142.851 143.438 142.676 143.51 142.541 143.634L141.503 144.578C141.422 144.652 141.357 144.741 141.313 144.842C141.269 144.942 141.246 145.049 141.246 145.159C141.246 145.268 141.269 145.377 141.312 145.477C141.356 145.577 141.422 145.667 141.502 145.74L144.309 148.301L141.502 150.862C141.422 150.936 141.356 151.026 141.312 151.126C141.269 151.226 141.246 151.334 141.246 151.444C141.246 151.553 141.269 151.661 141.313 151.761C141.357 151.861 141.422 151.951 141.503 152.024L142.542 152.968C142.677 153.091 142.852 153.163 143.035 153.172C143.218 153.179 143.399 153.124 143.544 153.013L146.781 150.555L154.213 157.335C154.385 157.508 154.606 157.622 154.846 157.663C155.086 157.703 155.333 157.668 155.552 157.563L159.434 155.696C159.634 155.599 159.803 155.448 159.92 155.261C160.038 155.073 160.101 154.855 160.101 154.633V141.968C160.101 141.746 160.038 141.529 159.92 141.341C159.802 141.153 159.633 141.002 159.433 140.906ZM155.39 152.582L149.751 148.301L155.39 144.021V152.582Z" fill="#007ACC"/>
</g>
<defs>
<clipPath id="clip0_0_1">
<rect width="173" height="171" fill="white"/>
</clipPath>
</defs>
</svg>
